<svg width="24" height="24" viewBox="0 0 24 24" fill="none" xmlns="http://www.w3.org/2000/svg">
<path d="M18 15.75C18 17.4833 17.3917 18.9583 16.175 20.175C14.9583 21.3917 13.4833 22 11.75 22C10.0167 22 8.54167 21.3917 7.325 20.175C6.10833 18.9583 5.5 17.4833 5.5 15.75V6.5C5.5 5.25 5.93767 4.18767 6.813 3.313C7.68833 2.43833 8.75067 2.00067 10 2C11.2493 1.99933 12.312 2.437 13.188 3.313C14.064 4.189 14.5013 5.25133 14.5 6.5V15.25C14.5 16.0167 14.2333 16.6667 13.7 17.2C13.1667 17.7333 12.5167 18 11.75 18C10.9833 18 10.3333 17.7333 9.8 17.2C9.26667 16.6667 9 16.0167 9 15.25V6H11V15.25C11 15.4667 11.071 15.646 11.213 15.788C11.355 15.93 11.534 16.0007 11.75 16C11.966 15.9993 12.1453 15.9283 12.288 15.787C12.4307 15.6457 12.5013 15.4667 12.5 15.25V6.5C12.4833 5.8 12.2377 5.20833 11.763 4.725C11.2883 4.24167 10.7007 4 10 4C9.29933 4 8.70767 4.24167 8.225 4.725C7.74233 5.20833 7.50067 5.8 7.5 6.5V15.75C7.48333 16.9333 7.89167 17.9377 8.725 18.763C9.55833 19.5883 10.5667 20.0007 11.75 20C12.9167 20 13.9083 19.5877 14.725 18.763C15.5417 17.9383 15.9667 16.934 16 15.75V6H18V15.75Z" fill="black"/>
</svg>
