<svg width="24" height="24" viewBox="0 0 24 24" fill="none" xmlns="http://www.w3.org/2000/svg">
<path d="M6.7998 19V5H12.3248C13.4081 5 14.4081 5.33333 15.3248 6C16.2415 6.66667 16.6998 7.59167 16.6998 8.775C16.6998 9.625 16.5081 10.2793 16.1248 10.738C15.7415 11.1967 15.3831 11.5257 15.0498 11.725C15.4665 11.9083 15.9291 12.25 16.4378 12.75C16.9465 13.25 17.2005 14 17.1998 15C17.1998 16.4833 16.6581 17.521 15.5748 18.113C14.4915 18.705 13.4748 19.0007 12.5248 19H6.7998ZM9.8248 16.2H12.4248C13.2248 16.2 13.7125 15.996 13.8878 15.588C14.0631 15.18 14.1505 14.884 14.1498 14.7C14.1491 14.516 14.0618 14.2203 13.8878 13.813C13.7138 13.4057 13.2011 13.2013 12.3498 13.2H9.8248V16.2ZM9.8248 10.5H12.1498C12.6998 10.5 13.0998 10.3583 13.3498 10.075C13.5998 9.79167 13.7248 9.475 13.7248 9.125C13.7248 8.725 13.5831 8.4 13.2998 8.15C13.0165 7.9 12.6498 7.775 12.1998 7.775H9.8248V10.5Z" fill="black"/>
</svg>
