<svg width="24" height="24" viewBox="0 0 24 24" fill="none" xmlns="http://www.w3.org/2000/svg">
<path d="M12 1.5C9.9233 1.5 7.89323 2.11581 6.16652 3.26957C4.4398 4.42332 3.09399 6.0632 2.29927 7.98182C1.50455 9.90045 1.29661 12.0116 1.70176 14.0484C2.1069 16.0852 3.10693 17.9562 4.57538 19.4246C6.04383 20.8931 7.91476 21.8931 9.95156 22.2982C11.9884 22.7034 14.0996 22.4955 16.0182 21.7007C17.9368 20.906 19.5767 19.5602 20.7304 17.8335C21.8842 16.1068 22.5 14.0767 22.5 12C22.5 9.21523 21.3938 6.54451 19.4246 4.57538C17.4555 2.60625 14.7848 1.5 12 1.5ZM12 21C10.22 21 8.47992 20.4722 6.99987 19.4832C5.51983 18.4943 4.36628 17.0887 3.68509 15.4442C3.0039 13.7996 2.82567 11.99 3.17294 10.2442C3.5202 8.49836 4.37737 6.89471 5.63604 5.63604C6.89472 4.37737 8.49836 3.5202 10.2442 3.17293C11.99 2.82567 13.7996 3.0039 15.4442 3.68508C17.0887 4.36627 18.4943 5.51983 19.4832 6.99987C20.4722 8.47991 21 10.22 21 12C21 14.3869 20.0518 16.6761 18.364 18.364C16.6761 20.0518 14.387 21 12 21Z" fill="black"/>
<path d="M8.625 8.25006C8.25416 8.25006 7.89165 8.36003 7.58331 8.56606C7.27496 8.77208 7.03464 9.06492 6.89273 9.40753C6.75081 9.75014 6.71368 10.1271 6.78603 10.4909C6.85838 10.8546 7.03695 11.1887 7.29918 11.4509C7.5614 11.7131 7.89549 11.8917 8.25921 11.964C8.62292 12.0364 8.99992 11.9992 9.34253 11.8573C9.68514 11.7154 9.97798 11.4751 10.184 11.1668C10.39 10.8584 10.5 10.4959 10.5 10.1251C10.502 9.87828 10.4549 9.63356 10.3613 9.40517C10.2678 9.17678 10.1298 8.96929 9.95528 8.79478C9.78077 8.62027 9.57328 8.48224 9.34489 8.38872C9.1165 8.2952 8.87179 8.24806 8.625 8.25006ZM15.375 8.25006C15.0042 8.25006 14.6416 8.36003 14.3333 8.56606C14.025 8.77208 13.7846 9.06492 13.6427 9.40753C13.5008 9.75014 13.4637 10.1271 13.536 10.4909C13.6084 10.8546 13.787 11.1887 14.0492 11.4509C14.3114 11.7131 14.6455 11.8917 15.0092 11.964C15.3729 12.0364 15.7499 11.9992 16.0925 11.8573C16.4351 11.7154 16.728 11.4751 16.934 11.1668C17.14 10.8584 17.25 10.4959 17.25 10.1251C17.252 9.87828 17.2049 9.63356 17.1113 9.40517C17.0178 9.17678 16.8798 8.96929 16.7053 8.79478C16.5308 8.62027 16.3233 8.48224 16.0949 8.38872C15.8665 8.2952 15.6218 8.24806 15.375 8.25006ZM12 18.0001C13.0353 17.9983 14.0525 17.7287 14.9527 17.2175C15.853 16.7062 16.6056 15.9708 17.1375 15.0826L15.855 14.3326C15.4548 14.9972 14.8895 15.5471 14.214 15.9288C13.5385 16.3105 12.7759 16.5111 12 16.5111C11.2241 16.5111 10.4615 16.3105 9.786 15.9288C9.11054 15.5471 8.54524 14.9972 8.145 14.3326L6.8625 15.0826C7.39437 15.9708 8.14702 16.7062 9.04727 17.2175C9.94751 17.7287 10.9647 17.9983 12 18.0001Z" fill="black"/>
</svg>
